#!OML:ASF F:\VICON\USERDATA\INSTALL\rory3\rory3.ASF
:FULLY-SPECIFIED
:DEGREES
4223
root -10.3255 17.8103 2.0679 537.87 29.4784 -1262.83
lowerback 10.1118 2.30565 -1.2647
upperback 0.869878 2.95325 -0.982902
thorax -4.77021 1.50791 -0.730375
lowerneck -18.5202 -7.03481 -12.4986
upperneck 33.2619 -7.50639 8.71428
head 15.7736 -2.97547 4.62888
rclavicle -3.45699e-014 1.20265e-014
rhumerus -34.3798 -9.42263 -84.4189
rradius 31.267
rwrist 4.14803
rhand -17.4607 8.3423
rfingers 7.12502
rthumb 8.79078 -21.4546
lclavicle -3.45699e-014 1.20265e-014
lhumerus -38.0514 10.1581 81.0847
lradius 25.588
lwrist -9.58227
lhand -22.3674 23.4012
lfingers 7.12502
lthumb 4.05399 53.3424
rfemur 3.86996 5.12302 20.5701
rtibia 44.5619
rfoot 9.10523 15.7132
rtoes 4.52844
lfemur -15.3413 -1.90169 -22.1627
ltibia 15.8708
lfoot 1.95668 -12.1929
ltoes 1.32136
4224
root -10.2877 17.8362 1.95108 537.498 30.057 -1263.28
lowerback 10.2289 2.3676 -1.56527
upperback 0.930316 3.00057 -1.11295
thorax -4.7806 1.53886 -0.708066
lowerneck -18.6166 -7.00077 -12.4242
upperneck 33.3861 -7.42159 8.57303
head 15.832 -2.94853 4.57571
rclavicle -4.70405e-014 1.26725e-015
rhumerus -34.3422 -9.21752 -84.5451
rradius 31.2111
rwrist 4.44237
rhand -17.3339 8.09304
rfingers 7.12502
rthumb 8.9131 -21.6987
lclavicle -4.70405e-014 1.26725e-015
lhumerus -37.8633 9.82622 81.2072
lradius 25.8342
lwrist -9.48342
lhand -22.7825 23.1722
lfingers 7.12502
lthumb 3.65312 53.1206
rfemur 2.51396 5.35464 19.929
rtibia 46.953
rfoot 11.0681 15.9197
rtoes 7.56969
lfemur -14.3099 -1.76181 -22.621
ltibia 15.1618
lfoot 1.89829 -11.7394
ltoes 1.67307
4225
root -10.2497 17.8558 1.83549 536.959 30.5539 -1263.9
lowerback 10.435 2.39385 -2.07653
upperback 1.00982 2.97696 -1.22178
thorax -4.83223 1.54012 -0.539651
lowerneck -18.7286 -6.94921 -12.3087
upperneck 33.4355 -7.29892 8.33595
head 15.8443 -2.9179 4.47438
rclavicle -4.25648e-014 -8.00108e-015
rhumerus -34.3397 -8.73256 -84.6912
rradius 31.2352
rwrist 4.59449
rhand -17.2498 8.17456
rfingers 7.12502
rthumb 8.99435 -21.6137
lclavicle -4.25648e-014 -8.00108e-015
lhumerus -37.7 9.31396 81.4955
lradius 26.216
lwrist -9.08178
lhand -21.581 23.9696
lfingers 7.12502
lthumb 4.81338 53.8949
rfemur 1.2885 5.47205 19.122
rtibia 49.2717
rfoot 12.6829 15.9232
rtoes 10.6483
lfemur -13.2022 -1.72439 -23.2588
ltibia 14.4912
lfoot 1.81065 -11.2544
ltoes 1.38531
4226
root -10.21 17.8708 1.72762 536.527 30.9831 -1264.31
lowerback 10.6801 2.35393 -2.4441
upperback 1.04895 2.8777 -1.26882
thorax -4.94241 1.50077 -0.378904
lowerneck -18.8472 -6.88121 -12.3093
upperneck 33.5862 -7.1408 8.21658
head 15.917 -2.86732 4.45999
rclavicle 1.31198e-014 -1.79403e-014
rhumerus -34.2892 -8.19834 -84.8174
rradius 31.0802
rwrist 4.83624
rhand -17.106 8.43579
rfingers 7.12502
rthumb 9.13311 -21.3465
lclavicle 1.31198e-014 -1.79403e-014
lhumerus -37.6208 8.69202 81.8423
lradius 26.6629
lwrist -8.41371
lhand -20.4174 24.8142
lfingers 7.12502
lthumb 5.93684 54.711
rfemur 0.0614529 5.45494 18.5767
rtibia 51.5242
rfoot 13.4552 15.8515
rtoes 11.8712
lfemur -12.1508 -1.65218 -23.6828
ltibia 13.8556
lfoot 1.74247 -10.9306
ltoes 1.45846
4227
root -10.1719 17.8821 1.62218 536.21 31.3514 -1264.55
lowerback 10.8798 2.2943 -2.60616
upperback 1.09041 2.77595 -1.30983
thorax -5.01425 1.45569 -0.323568
lowerneck -18.813 -6.81358 -12.4408
upperneck 33.6422 -7.00448 8.24599
head 15.9257 -2.82476 4.5269
rclavicle -2.21831e-014 5.31749e-015
rhumerus -34.1387 -7.89503 -84.9152
rradius 30.8341
rwrist 5.14496
rhand -17.0091 8.87068
rfingers 7.12502
rthumb 9.22654 -20.9075
lclavicle -2.21831e-014 5.31749e-015
lhumerus -37.4557 8.33419 82.035
lradius 27.1389
lwrist -7.74395
lhand -19.6649 25.4765
lfingers 7.12502
lthumb 6.66331 55.3517
rfemur -1.16307 5.38269 18.2016
rtibia 53.7258
rfoot 13.2743 15.4204
rtoes 11.1586
lfemur -11.1821 -1.56284 -23.9741
ltibia 13.2511
lfoot 1.67742 -10.7485
ltoes 1.85713
4228
root -10.1346 17.8905 1.51741 535.884 31.5369 -1264.85
lowerback 11.0528 2.19182 -2.77266
upperback 1.15051 2.61774 -1.38621
thorax -5.04852 1.38323 -0.291704
lowerneck -18.765 -6.74775 -12.5046
upperneck 33.6086 -6.90861 8.28575
head 15.8888 -2.79139 4.57281
rclavicle 1.93318e-014 -1.92324e-014
rhumerus -33.9473 -7.53363 -85.0552
rradius 30.6603
rwrist 5.2852
rhand -16.9761 8.90972
rfingers 7.12502
rthumb 9.25839 -20.867
lclavicle 1.93318e-014 -1.92324e-014
lhumerus -37.1636 7.97221 82.1539
lradius 27.5854
lwrist -6.93339
lhand -19.2301 25.6589
lfingers 7.12502
lthumb 7.083 55.5204
rfemur -2.34721 5.17852 17.7823
rtibia 55.834
rfoot 12.0648 14.3126
rtoes 7.94799
lfemur -10.3085 -1.64623 -24.3557
ltibia 12.7808
lfoot 1.44108 -10.4992
ltoes 1.19824
4229
root -10.0957 17.9002 1.42443 535.469 31.6787 -1265.16
lowerback 11.4459 2.09964 -3.10602
upperback 1.175 2.44475 -1.37826
thorax -5.25255 1.30859 -0.0852933
lowerneck -18.7033 -6.69365 -12.4784
upperneck 33.6062 -6.77977 8.09685
head 15.8432 -2.76407 4.50869
rclavicle -8.23155e-014 1.4064e-014
rhumerus -33.809 -6.97678 -85.1413
rradius 30.519
rwrist 5.24859
rhand -16.936 8.80676
rfingers 7.12502
rthumb 9.29706 -20.9682
lclavicle -8.23155e-014 1.4064e-014
lhumerus -36.7689 7.61994 82.3192
lradius 27.5907
lwrist -6.15566
lhand -19.5435 24.6227
lfingers 7.12502
lthumb 6.78055 54.4942
rfemur -3.51023 4.90264 17.4467
rtibia 57.8467
rfoot 10.0935 12.7022
rtoes 3.93311
lfemur -9.44288 -1.87716 -24.7093
ltibia 12.4347
lfoot 1.15456 -10.0022
ltoes 0.212432
4230
root -10.0521 17.9091 1.31736 535.192 31.9092 -1265.27
lowerback 11.5796 2.01271 -3.22899
upperback 1.2201 2.31471 -1.30389
thorax -5.28419 1.24853 0.0783816
lowerneck -18.6386 -6.63593 -12.5347
upperneck 33.6617 -6.62065 7.94134
head 15.8281 -2.72795 4.48396
rclavicle -5.48521e-014 2.98177e-015
rhumerus -33.7778 -6.81022 -85.0259
rradius 30.4677
rwrist 5.45979
rhand -16.6826 9.0117
rfingers 7.12502
rthumb 9.54155 -20.7523
lclavicle -5.48521e-014 2.98177e-015
lhumerus -36.5214 7.30713 82.536
lradius 27.6195
lwrist -5.80574
lhand -20.1857 23.6223
lfingers 7.12502
lthumb 6.1605 53.5127
rfemur -4.56286 4.51877 17.2298
rtibia 59.6383
rfoot 7.98716 10.9162
rtoes 2.03018
lfemur -8.55172 -1.90227 -24.9171
ltibia 12.0611
lfoot 0.902218 -9.52904
ltoes 0.608311
4231
root -10.0082 17.9175 1.21599 534.994 32.1439 -1265.35
lowerback 11.6683 1.9337 -3.35444
upperback 1.28615 2.19746 -1.25469
thorax -5.26726 1.19464 0.21765
lowerneck -18.7301 -6.58114 -12.4707
upperneck 33.7356 -6.51241 7.82428
head 15.8611 -2.69151 4.44485
rclavicle 2.26863e-014 5.1684e-015
rhumerus -33.6961 -7.03917 -84.8602
rradius 30.4936
rwrist 5.96064
rhand -16.3683 9.23537
rfingers 7.12502
rthumb 9.84482 -20.5145
lclavicle 2.26863e-014 5.1684e-015
lhumerus -36.3467 7.20082 82.6411
lradius 27.7639
lwrist -6.42802
lhand -21.5089 22.4625
lfingers 7.12502
lthumb 4.88294 52.3862
rfemur -5.6442 4.09547 17.0391
rtibia 61.2417
rfoot 6.24622 9.06855
rtoes -0.0491951
lfemur -7.85849 -2.08425 -25.0585
ltibia 11.8589
lfoot 0.658844 -8.88902
ltoes 1.71684
4232
root -9.96232 17.9338 1.11528 534.859 32.2066 -1265.32
lowerback 11.7744 1.81022 -3.36677
upperback 1.34295 2.03411 -1.1979
thorax -5.26377 1.11556 0.308448
lowerneck -18.8591 -6.556 -12.3489
upperneck 33.8564 -6.44124 7.64743
head 15.9261 -2.66996 4.36399
rclavicle -3.56943e-014 9.24349e-015
rhumerus -33.5896 -7.22891 -84.7232
rradius 30.487
rwrist 6.38196
rhand -16.2815 9.32677
rfingers 7.12502
rthumb 9.92863 -20.4191
lclavicle -3.56943e-014 9.24349e-015
lhumerus -36.1854 7.00344 82.788
lradius 28.0793
lwrist -6.74033
lhand -22.5381 21.7657
lfingers 7.12502
lthumb 3.88919 51.71
rfemur -6.62748 3.53891 16.9861
rtibia 62.5825
rfoot 4.72435 7.15868
rtoes -1.0089
lfemur -7.35825 -2.32974 -25.1172
ltibia 12.0026
lfoot 0.298174 -8.51537
ltoes 1.19293
4233
root -9.91738 17.9458 1.01312 534.691 32.2982 -1265.33
lowerback 11.8206 1.71263 -3.329
upperback 1.42912 1.91516 -1.17509
thorax -5.19427 1.05684 0.33106
lowerneck -18.8727 -6.55528 -12.3204
upperneck 33.9206 -6.42281 7.57697
head 15.9538 -2.66868 4.33437
rclavicle -8.18744e-015 5.66536e-015
rhumerus -33.5942 -7.19563 -84.6672
rradius 30.7455
rwrist 6.19224
rhand -16.3349 9.15617
rfingers 7.12502
rthumb 9.8771 -20.5921
lclavicle -8.18744e-015 5.66536e-015
lhumerus -35.7469 6.66872 82.9102
lradius 28.5686
lwrist -5.89136
lhand -22.3092 22.9837
lfingers 7.12502
lthumb 4.11018 52.9237
rfemur -7.59816 3.03923 16.915
rtibia 63.7502
rfoot 3.51498 5.22666
rtoes 0.537848
lfemur -6.853 -2.53199 -25.2228
ltibia 12.2988
lfoot -0.0985149 -8.2174
ltoes -0.272412
4234
root -9.87032 17.9593 0.911617 534.519 32.5147 -1265.32
lowerback 11.8313 1.6249 -3.29607
upperback 1.54524 1.81228 -1.15677
thorax -5.07408 1.00596 0.350657
lowerneck -18.952 -6.53182 -12.2406
upperneck 34.014 -6.37857 7.4944
head 16.0044 -2.65132 4.29652
rclavicle 7.55506e-014 -7.95139e-016
rhumerus -33.6073 -7.15258 -84.6859
rradius 31.1065
rwrist 5.88166
rhand -16.376 9.15929
rfingers 7.12502
rthumb 9.83745 -20.5909
lclavicle 7.55506e-014 -7.95139e-016
lhumerus -35.2268 6.63835 82.781
lradius 28.9824
lwrist -5.668
lhand -21.1641 24.0448
lfingers 7.12502
lthumb 5.21592 53.9606
rfemur -8.56856 2.60196 16.8668
rtibia 64.7515
rfoot 2.50077 3.31441
rtoes 1.71233
lfemur -6.24922 -2.79456 -25.267
ltibia 12.5702
lfoot -0.0890889 -7.70753
ltoes -0.700915
4235
root -9.82496 17.9615 0.813941 534.253 32.8129 -1265.42
lowerback 11.9318 1.57459 -3.43082
upperback 1.61254 1.73176 -1.11438
thorax -5.06146 0.970215 0.482189
lowerneck -18.9813 -6.48648 -12.1015
upperneck 34.0847 -6.28547 7.29399
head 16.0167 -2.62287 4.2043
rclavicle 5.13983e-014 1.71949e-014
rhumerus -33.5944 -7.06299 -84.621
rradius 31.3044
rwrist 5.68682
rhand -16.4429 9.14255
rfingers 7.12502
rthumb 9.77286 -20.6107
lclavicle 5.13983e-014 1.71949e-014
lhumerus -35.0229 6.9701 82.5708
lradius 29.3927
lwrist -6.5238
lhand -19.0351 25.1106
lfingers 7.12502
lthumb 7.27127 54.9656
rfemur -9.51561 2.22743 16.6912
rtibia 65.6401
rfoot 1.38036 1.59729
rtoes 0.952702
lfemur -5.73578 -2.97328 -25.431
ltibia 12.97
lfoot 0.020703 -7.04731
ltoes -1.48247
